#N canvas 236 346 476 300 10;
#X obj 156 166 tgl 15 0 empty empty empty 17 7 0 10 -262144 -1 -1 0
1;
#X obj 26 72 bng 15 250 50 0 empty empty empty 17 7 0 10 -262144 -1
-1;
#X obj 82 163 nbx 5 14 -1e+037 1e+037 0 0 mode empty empty 0 -8 0 10
-262144 -1 -1 0 256 0;
#X obj 198 179 nbx 5 14 0 1 0 0 empty empty VOLUME 0 -8 0 10 -262144
-1 -1 0 256 0;
#X obj 279 183 nbx 5 14 -1e+037 1e+037 0 0 OSC_UPDOWN empty UPDOWN
0 -8 0 10 -262144 -1 -1 0 256 0;
#X obj 199 220 nbx 5 14 -1e+037 1e+037 0 0 OSC_VOLUME empty empty 0
-8 0 10 -262144 -1 -1 0 256 0;
#X obj 198 198 * 0.6;
#X obj 89 65 udpreceive 9001;
#X obj 32 16 import mrpeach;
#X obj 89 86 unpackOSC;
#X obj 86 108 routeOSC /mode /toggle /vol /upDown;
#X connect 3 0 6 0;
#X connect 6 0 5 0;
#X connect 7 0 1 0;
#X connect 7 0 9 0;
#X connect 9 0 10 0;
#X connect 10 0 2 0;
#X connect 10 1 0 0;
#X connect 10 2 3 0;
#X connect 10 3 4 0;
