#N canvas 195 173 468 397 10;
#X obj 26 72 bng 15 250 50 0 empty empty empty 17 7 0 10 -262144 -1
-1;
#X obj 32 16 import mrpeach;
#X obj 89 86 unpackOSC;
#X obj 87 62 udpreceive 6161;
#X obj 88 121 routeOSC /mouseY;
#X floatatom 88 143 5 0 0 0 - - -, f 5;
#X connect 2 0 4 0;
#X connect 3 0 0 0;
#X connect 3 0 2 0;
#X connect 4 0 5 0;
