#N canvas 125 76 922 795 10;
#X declare mrpeach;
#X floatatom 202 158 5 0 0 0 - - -;
#X floatatom 272 157 5 0 0 0 - - -;
#X msg 392 240 60;
#X msg 422 239 62;
#X msg 452 239 64;
#X msg 485 240 65;
#X msg 514 239 67;
#X msg 541 238 69;
#X msg 570 238 71;
#X obj 203 195 sel 0 1 2 3 4 5 6 7 8 9 10 11 12 13 14;
#X msg 196 243 48;
#X msg 223 242 50;
#X msg 250 242 52;
#X msg 281 242 53;
#X msg 312 240 55;
#X msg 338 240 57;
#X msg 365 240 59;
#X obj 277 330 mtof;
#X obj 278 364 osc~;
#X obj 285 516 dac~;
#X obj 280 426 *~ 0.1;
#X floatatom 692 152 5 0 0 0 - - -;
#X obj 758 182 != 1;
#X msg 760 451 0.5 \, 0 50;
#X obj 651 566 hsl 128 15 0 127 0 0 empty empty empty -2 -8 0 10 -262144
-1 -1 0 1;
#X msg 633 453 0 \, 0.5 50;
#X obj 649 518 line;
#X obj 339 389 hsl 128 15 0 0.1 0 0 empty empty empty -2 -8 0 10 -262144
-1 -1 0 1;
#X obj 673 183 == 1;
#X obj 673 205 tgl 15 0 empty empty empty 17 7 0 10 -262144 -1 -1 0
1;
#X obj 758 204 tgl 15 0 empty empty empty 17 7 0 10 -262144 -1 -1 0
1;
#X obj 32 16 declare mrpeach;
#X obj 200 77 mrpeach/udpreceive 6161;
#X obj 203 101 mrpeach/unpackOSC;
#X obj 202 136 mrpeach/routeOSC /mouseY /Button /Playing;
#X connect 0 0 9 0;
#X connect 2 0 17 0;
#X connect 3 0 17 0;
#X connect 4 0 17 0;
#X connect 5 0 17 0;
#X connect 6 0 17 0;
#X connect 7 0 17 0;
#X connect 8 0 17 0;
#X connect 9 0 10 0;
#X connect 9 1 11 0;
#X connect 9 2 12 0;
#X connect 9 3 13 0;
#X connect 9 4 14 0;
#X connect 9 5 15 0;
#X connect 9 6 16 0;
#X connect 9 7 2 0;
#X connect 9 8 3 0;
#X connect 9 9 4 0;
#X connect 9 10 5 0;
#X connect 9 11 6 0;
#X connect 9 12 7 0;
#X connect 9 13 8 0;
#X connect 10 0 17 0;
#X connect 11 0 17 0;
#X connect 12 0 17 0;
#X connect 13 0 17 0;
#X connect 14 0 17 0;
#X connect 15 0 17 0;
#X connect 16 0 17 0;
#X connect 17 0 18 0;
#X connect 18 0 20 0;
#X connect 20 0 19 1;
#X connect 20 0 19 0;
#X connect 21 0 22 0;
#X connect 21 0 28 0;
#X connect 22 0 30 0;
#X connect 23 0 26 0;
#X connect 25 0 26 0;
#X connect 26 0 24 0;
#X connect 27 0 20 1;
#X connect 28 0 29 0;
#X connect 29 0 27 0;
#X connect 30 0 27 0;
#X connect 32 0 33 0;
#X connect 33 0 34 0;
#X connect 34 0 0 0;
#X connect 34 1 1 0;
#X connect 34 2 21 0;
