#N canvas 19 160 835 795 10;
#X floatatom 108 128 5 0 0 0 - - -;
#X msg 224 218 60;
#X msg 254 217 62;
#X msg 284 217 64;
#X msg 317 218 65;
#X msg 346 217 67;
#X msg 373 216 69;
#X msg 402 216 71;
#X obj 34 173 sel 0 1 2 3 4 5 6 7 8 9 10 11 12 13 14;
#X msg 28 221 48;
#X msg 55 220 50;
#X msg 82 220 52;
#X msg 113 220 53;
#X msg 144 218 55;
#X msg 170 218 57;
#X msg 197 218 59;
#X obj 94 334 mtof;
#X obj 95 368 osc~;
#X obj 102 520 dac~;
#X obj 300 477 hsl 128 15 0 1 0 0 empty empty empty -2 -8 0 10 -262144
-1 -1 0 1;
#X obj 592 285 tgl 15 0 empty empty empty 17 7 0 10 -262144 -1 -1 0
1;
#X obj 677 272 tgl 15 0 empty empty empty 17 7 0 10 -262144 -1 -1 0
1;
#X msg 20 36 \; pd dsp 1;
#X obj 19 14 loadbang;
#X obj 25 103 receive mouseY;
#X obj 579 197 receive Playing;
#X obj 586 250 != 1;
#X obj 677 250 == 1;
#X obj 97 430 *~ 1;
#X connect 1 0 16 0;
#X connect 2 0 16 0;
#X connect 3 0 16 0;
#X connect 4 0 16 0;
#X connect 5 0 16 0;
#X connect 6 0 16 0;
#X connect 7 0 16 0;
#X connect 8 0 9 0;
#X connect 8 1 10 0;
#X connect 8 2 11 0;
#X connect 8 3 12 0;
#X connect 8 4 13 0;
#X connect 8 5 14 0;
#X connect 8 6 15 0;
#X connect 8 7 1 0;
#X connect 8 8 2 0;
#X connect 8 9 3 0;
#X connect 8 10 4 0;
#X connect 8 11 5 0;
#X connect 8 12 6 0;
#X connect 8 13 7 0;
#X connect 9 0 16 0;
#X connect 10 0 16 0;
#X connect 11 0 16 0;
#X connect 12 0 16 0;
#X connect 13 0 16 0;
#X connect 14 0 16 0;
#X connect 15 0 16 0;
#X connect 16 0 17 0;
#X connect 17 0 28 0;
#X connect 19 0 28 1;
#X connect 20 0 19 0;
#X connect 21 0 19 0;
#X connect 23 0 22 0;
#X connect 24 0 8 0;
#X connect 25 0 26 0;
#X connect 25 0 27 0;
#X connect 26 0 20 0;
#X connect 27 0 21 0;
#X connect 28 0 18 1;
#X connect 28 0 18 0;
