#N canvas 1309 403 450 300 12;
#X obj 113 152 osc~;
#X obj 112 230 dac~;
#X msg 24 99 \; pd dsp 1;
#X obj 19 14 loadbang;
#X msg 113 111 440;
#X msg 167 115 1;
#X obj 113 178 *~;
#X connect 0 0 6 0;
#X connect 3 0 2 0;
#X connect 3 0 4 0;
#X connect 3 0 5 0;
#X connect 4 0 0 0;
#X connect 5 0 6 1;
#X connect 6 0 1 0;
#X connect 6 0 1 1;
